<svg width="21" height="22" viewBox="0 0 21 22" fill="none" xmlns="http://www.w3.org/2000/svg">
<path d="M8.98435 19.25C9.13795 19.5287 9.35886 19.7601 9.62489 19.921C9.89091 20.0819 10.1927 20.1666 10.4998 20.1666C10.807 20.1666 11.1088 20.0819 11.3748 19.921C11.6408 19.7601 11.8617 19.5287 12.0153 19.25M2.8541 14.0488C2.73979 14.1801 2.66436 14.3433 2.63697 14.5187C2.60959 14.694 2.63143 14.8739 2.69984 15.0365C2.76826 15.199 2.88029 15.3373 3.02232 15.4344C3.16435 15.5315 3.33026 15.5832 3.49985 15.5833H17.4998C17.6694 15.5834 17.8354 15.5318 17.9775 15.4349C18.1196 15.338 18.2318 15.1999 18.3004 15.0375C18.369 14.875 18.391 14.6952 18.3639 14.5198C18.3367 14.3445 18.2615 14.1812 18.1473 14.0498C16.9836 12.793 15.7498 11.4574 15.7498 7.33334C15.7498 5.87465 15.1967 4.47571 14.2122 3.44426C13.2276 2.41281 11.8922 1.83334 10.4998 1.83334C9.10746 1.83334 7.7721 2.41281 6.78754 3.44426C5.80297 4.47571 5.24985 5.87465 5.24985 7.33334C5.24985 11.4574 4.01522 12.793 2.8541 14.0488Z" stroke="#474747" stroke-width="2" stroke-linecap="round" stroke-linejoin="round"/>
</svg>
