<svg width="68" height="68" viewBox="0 0 68 68" fill="none" xmlns="http://www.w3.org/2000/svg">
<rect width="68" height="68.0007" rx="34" fill="#B3CDBF"/>
<path d="M46.5263 50.1058V46.5268C46.5263 44.6284 45.7721 42.8078 44.4298 41.4654C43.0874 40.123 41.2668 39.3689 39.3684 39.3689H28.6315C26.7331 39.3689 24.9125 40.123 23.5701 41.4654C22.2278 42.8078 21.4736 44.6284 21.4736 46.5268V50.1058M41.1578 25.0529C41.1578 29.0062 37.9531 32.2109 33.9999 32.2109C30.0468 32.2109 26.8421 29.0062 26.8421 25.0529C26.8421 21.0997 30.0468 17.895 33.9999 17.895C37.9531 17.895 41.1578 21.0997 41.1578 25.0529Z" stroke="#074221" stroke-width="2" stroke-linecap="round" stroke-linejoin="round"/>
</svg>
