<svg width="21" height="21" viewBox="0 0 21 21" fill="none" xmlns="http://www.w3.org/2000/svg">
<g clip-path="url(#clip0_61_2101)">
<path d="M7.95375 7.63187C8.15947 7.07459 8.56551 6.60467 9.09996 6.30534C9.63441 6.00601 10.2628 5.89659 10.8738 5.99646C11.4848 6.09633 12.039 6.39905 12.4382 6.851C12.8374 7.30295 13.0559 7.87496 13.055 8.46572C13.055 10.1334 10.43 10.9673 10.43 10.9673M10.5 14.3026H10.5088M19.25 10.1334C19.25 14.7386 15.3325 18.4719 10.5 18.4719C5.66751 18.4719 1.75 14.7386 1.75 10.1334C1.75 5.52821 5.66751 1.79495 10.5 1.79495C15.3325 1.79495 19.25 5.52821 19.25 10.1334Z" stroke="#474747" stroke-width="2" stroke-linecap="round" stroke-linejoin="round"/>
</g>
<defs>
<clipPath id="clip0_61_2101">
<rect width="21" height="20.0123" fill="white" transform="translate(0 0.127258)"/>
</clipPath>
</defs>
</svg>
