<svg width="20" height="19" viewBox="0 0 20 19" fill="none" xmlns="http://www.w3.org/2000/svg">
<g clip-path="url(#clip0_130_218)">
<path d="M10.4667 5.13814C11.0398 4.28265 11.4461 3.33904 11.6667 2.35107C12.0833 4.29735 13.3333 6.16577 15 7.41138C16.6667 8.657 17.5 10.1362 17.5 11.6932C17.5048 12.7693 17.1674 13.8225 16.5307 14.7193C15.8939 15.6161 14.9865 16.3161 13.9234 16.7305C12.8604 17.1449 11.6895 17.2552 10.5593 17.0472C9.42911 16.8392 8.39044 16.3225 7.575 15.5624M5.83333 12.6897C7.66667 12.6897 9.16667 11.265 9.16667 9.53671C9.16667 8.63364 8.69167 7.77728 7.74167 7.05327C6.79167 6.32925 6.075 5.25491 5.83333 4.12607C5.59167 5.25491 4.88333 6.33704 3.925 7.05327C2.96667 7.7695 2.5 8.64142 2.5 9.53671C2.5 11.265 4 12.6897 5.83333 12.6897Z" stroke="#0B6AF9" stroke-width="2" stroke-linecap="round" stroke-linejoin="round"/>
</g>
<defs>
<clipPath id="clip0_130_218">
<rect width="20" height="18.6842" fill="white"/>
</clipPath>
</defs>
</svg>
