<svg width="20" height="19" viewBox="0 0 20 19" fill="none" xmlns="http://www.w3.org/2000/svg">
<path d="M1.7181 9.61304C1.64865 9.43825 1.64865 9.24598 1.7181 9.0712C2.39452 7.53898 3.5427 6.22889 5.01708 5.30703C6.49146 4.38516 8.22564 3.89304 9.99977 3.89304C11.7739 3.89304 13.5081 4.38516 14.9825 5.30703C16.4568 6.22889 17.605 7.53898 18.2814 9.0712C18.3509 9.24598 18.3509 9.43825 18.2814 9.61304C17.605 11.1453 16.4568 12.4553 14.9825 13.3772C13.5081 14.2991 11.7739 14.7912 9.99977 14.7912C8.22564 14.7912 6.49146 14.2991 5.01708 13.3772C3.5427 12.4553 2.39452 11.1453 1.7181 9.61304Z" stroke="#FF4EC4" stroke-width="2" stroke-linecap="round" stroke-linejoin="round"/>
<path d="M9.99977 11.6776C11.3805 11.6776 12.4998 10.632 12.4998 9.34212C12.4998 8.05224 11.3805 7.00659 9.99977 7.00659C8.61906 7.00659 7.49977 8.05224 7.49977 9.34212C7.49977 10.632 8.61906 11.6776 9.99977 11.6776Z" stroke="#FF4EC4" stroke-width="2" stroke-linecap="round" stroke-linejoin="round"/>
</svg>
