<svg width="32" height="31" viewBox="0 0 32 31" fill="none" xmlns="http://www.w3.org/2000/svg">
<rect width="32" height="31" rx="15.5" fill="#B3CDBF" fill-opacity="0.65"/>
<g clip-path="url(#clip0_192_434)">
<path d="M18.25 20.5H14.5M20.5 17.5H14.5M10 23.5H22C22.3978 23.5 22.7794 23.342 23.0607 23.0607C23.342 22.7794 23.5 22.3978 23.5 22V10C23.5 9.60218 23.342 9.22064 23.0607 8.93934C22.7794 8.65804 22.3978 8.5 22 8.5H13C12.6022 8.5 12.2206 8.65804 11.9393 8.93934C11.658 9.22064 11.5 9.60218 11.5 10V22C11.5 22.3978 11.342 22.7794 11.0607 23.0607C10.7794 23.342 10.3978 23.5 10 23.5ZM10 23.5C9.60218 23.5 9.22064 23.342 8.93934 23.0607C8.65804 22.7794 8.5 22.3978 8.5 22V15.25C8.5 14.8522 8.65804 14.4706 8.93934 14.1893C9.22064 13.908 9.60218 13.75 10 13.75H11.5M15.25 11.5H19.75C20.1642 11.5 20.5 11.8358 20.5 12.25V13.75C20.5 14.1642 20.1642 14.5 19.75 14.5H15.25C14.8358 14.5 14.5 14.1642 14.5 13.75V12.25C14.5 11.8358 14.8358 11.5 15.25 11.5Z" stroke="#0B6AF9" stroke-width="2" stroke-linecap="round" stroke-linejoin="round"/>
</g>
<defs>
<clipPath id="clip0_192_434">
<rect width="18" height="18" fill="white" transform="translate(7 7)"/>
</clipPath>
</defs>
</svg>
