<svg width="23" height="22" viewBox="0 0 23 22" fill="none" xmlns="http://www.w3.org/2000/svg">
<path d="M19.1668 9.16665C19.1668 13.7436 13.8586 18.5102 12.0761 19.9824C11.9101 20.1018 11.7079 20.1664 11.5002 20.1664C11.2924 20.1664 11.0903 20.1018 10.9242 19.9824C9.1417 18.5102 3.8335 13.7436 3.8335 9.16665C3.8335 7.22173 4.64123 5.35646 6.07901 3.9812C7.51679 2.60593 9.46684 1.83331 11.5002 1.83331C13.5335 1.83331 15.4835 2.60593 16.9213 3.9812C18.3591 5.35646 19.1668 7.22173 19.1668 9.16665Z" stroke="#474747" stroke-width="2" stroke-linecap="round" stroke-linejoin="round"/>
<path d="M11.5002 11.9166C13.088 11.9166 14.3752 10.6854 14.3752 9.16665C14.3752 7.64786 13.088 6.41665 11.5002 6.41665C9.91234 6.41665 8.62516 7.64786 8.62516 9.16665C8.62516 10.6854 9.91234 11.9166 11.5002 11.9166Z" stroke="#474747" stroke-width="2" stroke-linecap="round" stroke-linejoin="round"/>
</svg>
