<svg width="21" height="21" viewBox="0 0 21 21" fill="none" xmlns="http://www.w3.org/2000/svg">
<path d="M8.98435 18.375C9.13795 18.641 9.35886 18.8619 9.62489 19.0155C9.89091 19.1691 10.1927 19.2499 10.4998 19.2499C10.807 19.2499 11.1088 19.1691 11.3748 19.0155C11.6408 18.8619 11.8617 18.641 12.0153 18.375M2.8541 13.4103C2.73979 13.5355 2.66436 13.6913 2.63697 13.8587C2.60959 14.0261 2.63143 14.1978 2.69984 14.353C2.76826 14.5082 2.88029 14.6401 3.02232 14.7328C3.16435 14.8255 3.33026 14.8749 3.49985 14.875H17.4998C17.6694 14.8751 17.8354 14.8258 17.9775 14.7333C18.1196 14.6408 18.2318 14.509 18.3004 14.354C18.369 14.1989 18.391 14.0272 18.3639 13.8598C18.3367 13.6924 18.2615 13.5365 18.1473 13.4111C16.9836 12.2115 15.7498 10.9366 15.7498 7C15.7498 5.60761 15.1967 4.27226 14.2122 3.28769C13.2276 2.30312 11.8922 1.75 10.4998 1.75C9.10746 1.75 7.7721 2.30312 6.78754 3.28769C5.80297 4.27226 5.24985 5.60761 5.24985 7C5.24985 10.9366 4.01522 12.2115 2.8541 13.4103Z" stroke="#074221" stroke-width="2" stroke-linecap="round" stroke-linejoin="round"/>
</svg>
