<svg width="23" height="22" viewBox="0 0 23 22" fill="none" xmlns="http://www.w3.org/2000/svg">
<g clip-path="url(#clip0_58_2010)">
<path d="M13.2555 15.1873C13.4534 15.2743 13.6764 15.2941 13.8877 15.2436C14.099 15.1931 14.286 15.0753 14.418 14.9096L14.7582 14.4833C14.9367 14.2556 15.1682 14.0708 15.4343 13.9435C15.7005 13.8162 15.994 13.75 16.2915 13.75H19.1665C19.6748 13.75 20.1623 13.9431 20.5218 14.287C20.8812 14.6308 21.0832 15.0971 21.0832 15.5833V18.3333C21.0832 18.8195 20.8812 19.2859 20.5218 19.6297C20.1623 19.9735 19.6748 20.1666 19.1665 20.1666C14.5915 20.1666 10.2039 18.4283 6.96891 15.3339C3.73391 12.2396 1.9165 8.04272 1.9165 3.66665C1.9165 3.18042 2.11844 2.7141 2.47788 2.37028C2.83733 2.02647 3.32484 1.83331 3.83317 1.83331H6.70817C7.2165 1.83331 7.70401 2.02647 8.06346 2.37028C8.4229 2.7141 8.62484 3.18042 8.62484 3.66665V6.41665C8.62484 6.70126 8.55556 6.98197 8.42249 7.23654C8.28942 7.49111 8.09621 7.71254 7.85817 7.88331L7.40967 8.20506C7.23374 8.33356 7.10973 8.51635 7.05872 8.72238C7.00771 8.92842 7.03284 9.14499 7.12984 9.33531C8.43957 11.8799 10.5937 13.9377 13.2555 15.1873Z" stroke="#474747" stroke-width="2" stroke-linecap="round" stroke-linejoin="round"/>
</g>
<defs>
<clipPath id="clip0_58_2010">
<rect width="23" height="22" fill="white"/>
</clipPath>
</defs>
</svg>
