<svg width="32" height="31" viewBox="0 0 32 31" fill="none" xmlns="http://www.w3.org/2000/svg">
<rect width="32" height="31" rx="15.5" fill="#B3CDBF" fill-opacity="0.71"/>
<path d="M8.5 22.75C8.5 20.5 9.8875 18.73 12.31 18.25C14.125 17.89 16 16.75 16.75 16M15.25 22C13.933 22.004 12.6627 21.5129 11.6909 20.6241C10.7191 19.7352 10.1168 18.5137 10.0036 17.2016C9.89028 15.8895 10.2743 14.5828 11.0794 13.5406C11.8845 12.4983 13.0518 11.7968 14.35 11.575C18.625 10.75 19.75 10.36 21.25 8.5C22 10 22.75 11.635 22.75 14.5C22.75 18.625 19.165 22 15.25 22Z" stroke="#0A5D2F" stroke-width="2" stroke-linecap="round" stroke-linejoin="round"/>
</svg>
