<svg width="32" height="32" viewBox="0 0 32 32" fill="none" xmlns="http://www.w3.org/2000/svg">
<rect width="32" height="32" rx="16" fill="#B3CDBF"/>
<path d="M21.8945 23.5789V21.8947C21.8945 21.0014 21.5396 20.1446 20.9079 19.5129C20.2762 18.8812 19.4194 18.5263 18.526 18.5263H13.4734C12.58 18.5263 11.7233 18.8812 11.0916 19.5129C10.4599 20.1446 10.105 21.0014 10.105 21.8947V23.5789M19.3681 11.7895C19.3681 13.6498 17.86 15.1579 15.9997 15.1579C14.1394 15.1579 12.6313 13.6498 12.6313 11.7895C12.6313 9.92914 14.1394 8.42105 15.9997 8.42105C17.86 8.42105 19.3681 9.92914 19.3681 11.7895Z" stroke="#074221" stroke-width="2" stroke-linecap="round" stroke-linejoin="round"/>
</svg>
