<svg width="24" height="24" viewBox="0 0 24 24" fill="none" xmlns="http://www.w3.org/2000/svg">
<path d="M17 3H19C19.5304 3 20.0391 3.21071 20.4142 3.58579C20.7893 3.96086 21 4.46957 21 5V7M21 17V19C21 19.5304 20.7893 20.0391 20.4142 20.4142C20.0391 20.7893 19.5304 21 19 21H17M3 7V5C3 4.46957 3.21071 3.96086 3.58579 3.58579C3.96086 3.21071 4.46957 3 5 3H7M7 21H5C4.46957 21 3.96086 20.7893 3.58579 20.4142C3.21071 20.0391 3 19.5304 3 19V17M7.828 13.07C7.29193 12.5093 6.99392 11.7627 6.99652 10.9869C6.99911 10.2111 7.30211 9.46655 7.84192 8.9094C8.38173 8.35225 9.11637 8.02587 9.89166 7.99876C10.6669 7.97165 11.4226 8.24592 12 8.764C12.5774 8.24592 13.3331 7.97165 14.1083 7.99876C14.8836 8.02587 15.6183 8.35225 16.1581 8.9094C16.6979 9.46655 17.0009 10.2111 17.0035 10.9869C17.0061 11.7627 16.7081 12.5093 16.172 13.07L12.725 16.69C12.6316 16.7882 12.5192 16.8664 12.3947 16.9198C12.2701 16.9732 12.136 17.0007 12.0005 17.0007C11.865 17.0007 11.7309 16.9732 11.6063 16.9198C11.4818 16.8664 11.3694 16.7882 11.276 16.69L7.828 13.07Z" stroke="white" stroke-width="2" stroke-linecap="round" stroke-linejoin="round"/>
</svg>
