<svg width="21" height="21" viewBox="0 0 21 21" fill="none" xmlns="http://www.w3.org/2000/svg">
<path d="M17.5 11.2137C17.5 15.3829 14.4375 17.4675 10.7975 18.6766C10.6069 18.7382 10.3998 18.7352 10.2113 18.6683C6.5625 17.4675 3.5 15.3829 3.5 11.2137V5.37677C3.5 5.15562 3.59219 4.94353 3.75628 4.78716C3.92038 4.63078 4.14294 4.54293 4.375 4.54293C6.125 4.54293 8.3125 3.54231 9.835 2.27487C10.0204 2.12394 10.2562 2.04102 10.5 2.04102C10.7438 2.04102 10.9796 2.12394 11.165 2.27487C12.6963 3.55065 14.875 4.54293 16.625 4.54293C16.8571 4.54293 17.0796 4.63078 17.2437 4.78716C17.4078 4.94353 17.5 5.15562 17.5 5.37677V11.2137Z" stroke="#474747" stroke-width="2" stroke-linecap="round" stroke-linejoin="round"/>
</svg>
