<svg width="20" height="20" viewBox="0 0 20 20" fill="none" xmlns="http://www.w3.org/2000/svg">
<path d="M11.6665 3.78504V11.9905C12.302 12.3333 12.7986 12.8623 13.0794 13.4957C13.3602 14.129 13.4095 14.8312 13.2196 15.4933C13.0297 16.1555 12.6112 16.7406 12.029 17.1579C11.4469 17.5752 10.7336 17.8014 9.99984 17.8014C9.26606 17.8014 8.55278 17.5752 7.97063 17.1579C7.38849 16.7406 6.97 16.1555 6.78009 15.4933C6.59017 14.8312 6.63943 14.129 6.92024 13.4957C7.20105 12.8623 7.6977 12.3333 8.33317 11.9905V3.78504C8.33317 3.3721 8.50877 2.97606 8.82133 2.68407C9.13389 2.39207 9.55781 2.22803 9.99984 2.22803C10.4419 2.22803 10.8658 2.39207 11.1783 2.68407C11.4909 2.97606 11.6665 3.3721 11.6665 3.78504Z" stroke="#FFAD66" stroke-width="2" stroke-linecap="round" stroke-linejoin="round"/>
</svg>
