<svg width="22" height="22" viewBox="0 0 22 22" fill="none" xmlns="http://www.w3.org/2000/svg">
<rect width="22" height="22" rx="11" fill="#B3CDBF" fill-opacity="0.73"/>
<g clip-path="url(#clip0_192_432)">
<path d="M9.96875 10.8226V14.0161M12.0312 10.8226V14.0161M14.6094 8.16129V15.6129C14.6094 15.8952 14.5007 16.166 14.3073 16.3656C14.1139 16.5653 13.8516 16.6774 13.5781 16.6774H8.42188C8.14837 16.6774 7.88607 16.5653 7.69267 16.3656C7.49927 16.166 7.39062 15.8952 7.39062 15.6129V8.16129M6.35938 8.16129H15.6406M8.9375 8.16129V7.09677C8.9375 6.81445 9.04615 6.54368 9.23955 6.34405C9.43294 6.14441 9.69525 6.03226 9.96875 6.03226H12.0312C12.3048 6.03226 12.5671 6.14441 12.7605 6.34405C12.9539 6.54368 13.0625 6.81445 13.0625 7.09677V8.16129" stroke="#DE3D31" stroke-width="2" stroke-linecap="round" stroke-linejoin="round"/>
</g>
<defs>
<clipPath id="clip0_192_432">
<rect width="12.375" height="12.7742" fill="white" transform="translate(4.8125 4.96774)"/>
</clipPath>
</defs>
</svg>
